<?xml version="1.0" encoding="UTF-8"?>
<svg width="32px" height="32px" viewBox="0 0 32 32" version="1.1" xmlns="http://www.w3.org/2000/svg" xmlns:xlink="http://www.w3.org/1999/xlink">
    <title>icon_close</title>
    <g id="icon_close" stroke="none" stroke-width="1" fill="none" fill-rule="evenodd">
        <g id="Group" transform="translate(-1.000000, -1.000000)">
            <g id="Group-2" transform="translate(17.000000, 17.000000) rotate(45.000000) translate(-17.000000, -17.000000) translate(5.000000, 5.000000)">
                <path d="M10.5,10.5 L10.5,7.5 C10.5,6.67157288 11.1715729,6 12,6 C12.8284271,6 13.5,6.67157288 13.5,7.5 L13.5,10.5 L13.5,10.5 L16.5,10.5 C17.3284271,10.5 18,11.1715729 18,12 C18,12.8284271 17.3284271,13.5 16.5,13.5 L13.5,13.5 L13.5,13.5 L13.5,16.5 C13.5,17.3284271 12.8284271,18 12,18 C11.1715729,18 10.5,17.3284271 10.5,16.5 L10.5,13.5 L10.5,13.5 L7.5,13.5 C6.67157288,13.5 6,12.8284271 6,12 C6,11.1715729 6.67157288,10.5 7.5,10.5 L10.5,10.5 L10.5,10.5 Z" id="Path" fill="#EEC464"></path>
                <rect id="Rectangle" transform="translate(12.000000, 12.000000) rotate(-45.000000) translate(-12.000000, -12.000000) " x="4" y="4" width="16" height="16"></rect>
            </g>
        </g>
    </g>
</svg>