<svg xmlns="http://www.w3.org/2000/svg" class="logo" viewBox="0 0 270 150" xml:space="preserve" fill="#fff">
    <g>
    <path d="M0 7.738v13.818c0 5.157 2.578 7.737 7.738 7.737H79.04c4.235 0 6.446 2.396 6.446 7.003v7.738c0 4.238-1.842 6.446-5.711 6.446H7.738c-4.035 0-6.483 1.586-7.363 4.74L0 55.196v12.053c0 5.158 2.578 7.738 7.738 7.738h73.88c3.868 0 5.711 2.211 5.711 6.449v8.106c0 4.605-2.209 6.816-6.447 6.816H7.738c-5.16 0-7.738 2.58-7.738 7.738v14.188c0 5.157 2.578 7.737 7.738 7.737H100.962c5.715 0 8.662-2.58 8.662-7.923v-3.314c0-4.238 2.211-6.266 6.633-6.266h3.5c4.238 0 6.265-2.764 6.265-8.476V77.198c0-5.342-2.396-8.106-7.003-8.106h-4.238c-3.869 0-5.895-1.843-5.895-5.712v-3.684c0-3.869 2.025-5.712 5.895-5.712h2.211c4.607 0 7.004-2.396 7.004-7.371V27.637c0-6.08-2.58-9.026-7.738-9.026h-3.503c-4.235 0-6.446-2.211-6.446-6.634V9.029c0-6.08-3.318-9.029-9.949-9.029H7.738C2.578 0 0 2.58 0 7.738z" fill="#FF0000"></path>
    </g>
    <g>
    <path d="M260.247 0h-13.818c-5.157 0-7.737 2.578-7.737 7.738V79.04c0 4.235-2.396 6.446-7.003 6.446h-7.738c-4.238 0-6.446-1.841-6.446-5.71V7.738c0-4.035-1.586-6.483-4.74-7.363L212.79 0h-12.053c-5.158 0-7.738 2.578-7.738 7.738v73.88c0 3.868-2.211 5.711-6.449 5.711h-8.106c-4.604 0-6.815-2.209-6.815-6.447V7.738c0-5.16-2.58-7.738-7.738-7.738h-14.188c-5.158 0-7.738 2.578-7.738 7.738V100.962c0 5.715 2.58 8.662 7.923 8.662h3.315c4.238 0 6.265 2.211 6.265 6.633v3.5c0 4.238 2.765 6.265 8.476 6.265h22.846c5.342 0 8.106-2.396 8.106-7.003v-4.238c0-3.869 1.843-5.895 5.712-5.895h3.684c3.869 0 5.712 2.025 5.712 5.895v2.211c0 4.607 2.396 7.004 7.371 7.004h18.977c6.08 0 9.026-2.58 9.026-7.738v-3.503c0-4.235 2.211-6.446 6.634-6.446h2.947c6.08 0 9.029-3.318 9.029-9.949V7.738C267.985 2.578 265.405 0 260.247 0z" fill="#000000"></path>
    </g>
</svg>