<svg width="138" height="131" viewBox="0 0 138 131" fill="none" xmlns="http://www.w3.org/2000/svg">
<g filter="url(#filter0_d)">
<path fill-rule="evenodd" clip-rule="evenodd" d="M49.8409 2.26503C48.101 2.53006 46.6598 2.81276 45.7987 3.04245C45.4647 3.14846 44.9023 3.28981 44.5684 3.37815C42.5297 3.94355 41.44 4.38526 38.628 5.74574C35.5876 7.21223 33.2149 8.82008 30.4205 11.2407C28.8915 12.5835 27.4327 14.1207 26.2904 15.6048C25.9564 16.0465 25.6401 16.4352 25.5874 16.4883C25.3062 16.7179 24.0408 18.7145 22.9335 20.6757C22.459 21.5061 22.0899 22.1422 20.6663 24.6158C18.9616 27.5665 18.7858 27.8668 18.364 28.6266C18.1531 28.9976 17.9246 29.3687 17.8543 29.4747C17.784 29.563 17.4853 30.0931 17.2041 30.6231C16.9053 31.1532 16.0968 32.5844 15.3938 33.8035C13.7242 36.7011 13.5309 37.0368 13.0915 37.8143C12.8806 38.1853 12.6521 38.5563 12.5818 38.6624C12.5115 38.7507 12.2128 39.2808 11.9316 39.8108C11.6328 40.3409 10.8243 41.772 10.1213 42.9912C8.34625 46.0478 7.08084 48.5038 6.51844 49.9703C6.25482 50.6417 5.99119 51.3661 5.90332 51.5604C5.72757 52.0198 5.11244 54.1577 4.88396 55.1825C4.02279 58.8929 3.75916 63.7518 4.23369 67.7272C4.63791 71.0843 4.76094 71.632 5.78029 74.883C6.55359 77.3389 7.97717 80.3426 10.1038 83.9823C10.8243 85.2015 11.6328 86.6326 11.9316 87.1627C12.2128 87.6927 12.5115 88.2051 12.5818 88.3111C12.6521 88.3995 12.8806 88.7882 13.0915 89.1416C13.5309 89.9366 13.7242 90.2724 15.3938 93.17C16.0968 94.3891 16.9053 95.8203 17.2041 96.3504C17.4853 96.8804 17.784 97.3928 17.8543 97.4988C17.9246 97.5872 18.1531 97.9759 18.364 98.3469C18.7858 99.1067 18.9616 99.407 20.6663 102.358C22.0899 104.831 22.459 105.467 22.9335 106.28C24.0408 108.259 25.3062 110.256 25.5874 110.485C25.6401 110.538 25.9564 110.927 26.2904 111.369C29.2254 115.22 33.8301 118.895 38.628 121.228C42.8636 123.295 45.3417 124.037 50.0167 124.708C52.7408 125.097 85.2546 125.097 87.9787 124.708C92.6537 124.037 95.1318 123.295 99.3674 121.228C101.599 120.15 103.462 119.002 105.202 117.659C109.649 114.231 112.232 111.263 115.062 106.298C115.572 105.414 115.941 104.761 117.329 102.358C119.034 99.407 119.21 99.1067 119.631 98.3292C119.842 97.9759 120.071 97.5872 120.141 97.4988C120.211 97.3928 120.51 96.8804 120.791 96.3504C121.09 95.8203 121.899 94.3891 122.602 93.17C124.271 90.2724 124.465 89.9367 124.904 89.1592C125.115 88.7882 125.343 88.3995 125.414 88.3111C125.484 88.2051 125.783 87.6927 126.064 87.1627C126.363 86.6326 127.171 85.2015 127.892 83.9823C130.018 80.3426 131.442 77.3389 132.215 74.883C133.234 71.632 133.357 71.0843 133.762 67.7272C134.236 63.7518 133.99 58.9636 133.129 55.1825C132.303 51.5781 130.633 47.691 127.892 42.9912C127.171 41.772 126.363 40.3409 126.064 39.8108C125.783 39.2808 125.484 38.7507 125.414 38.6624C125.343 38.5563 125.115 38.1853 124.904 37.8143C124.465 37.0368 124.271 36.7011 122.602 33.8035C121.899 32.5844 121.09 31.1532 120.791 30.6231C120.51 30.0931 120.211 29.563 120.141 29.4747C120.071 29.3687 119.842 28.9976 119.631 28.6266C119.21 27.8668 119.034 27.5665 117.329 24.6158C115.941 22.2129 115.572 21.5592 115.062 20.6757C112.232 15.7108 109.649 12.7425 105.202 9.3148C103.462 7.97199 101.599 6.82352 99.3674 5.74574C95.1318 3.67851 92.6537 2.93644 87.9787 2.26503C85.5007 1.91166 52.2311 1.91166 49.8409 2.26503Z" fill="url(#paint0_linear)"/>
<path fill-rule="evenodd" clip-rule="evenodd" d="M90.1642 24.0132C93.3546 25.5062 94.9042 27.3344 98.5808 33.8243C100.343 36.9017 102.045 39.9181 102.409 40.5275C113.165 59.0527 113.044 58.8394 113.652 61.5511C114.077 63.5011 114.107 64.1105 113.773 65.9387C113.257 68.7723 113.226 68.8637 102.409 87.5108C102.045 88.1201 100.343 91.1366 98.5808 94.214C94.9042 100.704 93.3546 102.532 90.1642 104.025L88.0981 105L68.5 105H48.9019L46.8358 104.025C43.6454 102.532 42.0958 100.704 38.4192 94.214C36.6569 91.1366 34.9554 88.1201 34.5908 87.5108C23.7739 68.8637 23.7435 68.7723 23.2269 65.9387C22.8927 64.1105 22.9231 63.5011 23.3485 61.5511C23.9562 58.8394 23.8346 59.0527 34.5908 40.5275C34.9554 39.9181 36.6569 36.9017 38.4192 33.8243C40.6373 29.9242 42.0958 27.7305 43.1896 26.6031C44.8608 24.9273 47.4131 23.5257 49.5096 23.1601C50.1781 23.0382 59.1415 22.9773 69.4115 23.0078L88.0981 23.0382L90.1642 24.0132Z" fill="url(#paint1_linear)"/>
<path fill-rule="evenodd" clip-rule="evenodd" d="M82.1176 40.5808C83.9758 41.4365 84.8783 42.4843 87.0196 46.2042C88.046 47.968 89.037 49.697 89.2493 50.0462C95.5139 60.6643 95.4431 60.5421 95.797 62.0964C96.0448 63.2141 96.0625 63.5633 95.8678 64.6112C95.567 66.2353 95.5493 66.2877 89.2493 76.9757C89.037 77.325 88.046 79.0539 87.0196 80.8178C84.8783 84.5376 83.9758 85.5854 82.1176 86.4412L80.9143 87H69.5H58.0857L56.8824 86.4412C55.0242 85.5854 54.1217 84.5376 51.9804 80.8178C50.954 79.0539 49.963 77.325 49.7507 76.9757C43.4507 66.2877 43.433 66.2353 43.1322 64.6112C42.9375 63.5633 42.9552 63.2141 43.203 62.0964C43.5569 60.5421 43.4861 60.6643 49.7507 50.0462C49.963 49.697 50.954 47.968 51.9804 46.2042C53.2723 43.9688 54.1217 42.7114 54.7588 42.0652C55.7321 41.1047 57.2186 40.3013 58.4397 40.0918C58.829 40.0219 64.0495 39.987 70.0309 40.0045L80.9143 40.0219L82.1176 40.5808Z" fill="url(#paint2_linear)"/>
<path d="M66.2426 64.1168L63.9954 78H75.0057L72.7574 64.1168C75.2642 62.9139 77 60.376 77 57.4308C77 53.3289 73.6424 50 69.5 50C65.3576 50 62 53.3289 62 57.4308C62 60.376 63.7346 62.9139 66.2426 64.1168Z" fill="white"/>
</g>
<defs>
<filter id="filter0_d" x="0" y="0" width="138" height="131" filterUnits="userSpaceOnUse" color-interpolation-filters="sRGB">
<feFlood flood-opacity="0" result="BackgroundImageFix"/>
<feColorMatrix in="SourceAlpha" type="matrix" values="0 0 0 0 0 0 0 0 0 0 0 0 0 0 0 0 0 0 127 0"/>
<feOffset dy="2"/>
<feGaussianBlur stdDeviation="2"/>
<feColorMatrix type="matrix" values="0 0 0 0 0 0 0 0 0 0 0 0 0 0 0 0 0 0 0.254589 0"/>
<feBlend mode="normal" in2="BackgroundImageFix" result="effect1_dropShadow"/>
<feBlend mode="normal" in="SourceGraphic" in2="effect1_dropShadow" result="shape"/>
</filter>
<linearGradient id="paint0_linear" x1="134" y1="2" x2="134" y2="125" gradientUnits="userSpaceOnUse">
<stop stop-color="#174697"/>
<stop offset="1" stop-color="#0C2550"/>
</linearGradient>
<linearGradient id="paint1_linear" x1="116.526" y1="23" x2="116.526" y2="105" gradientUnits="userSpaceOnUse">
<stop stop-color="#3F78DC"/>
<stop offset="1" stop-color="#2F5FB3"/>
</linearGradient>
<linearGradient id="paint2_linear" x1="43.7222" y1="85.7191" x2="43.7222" y2="40" gradientUnits="userSpaceOnUse">
<stop stop-color="#68BBE1"/>
<stop offset="1" stop-color="#8BD7F9"/>
</linearGradient>
</defs>
</svg>
